<svg width="500" height="500" viewBox="0 0 500 500" fill="none" xmlns="http://www.w3.org/2000/svg">
<rect width="500" height="500" fill="white"/>
<path d="M285 221L282 229L274 232L282 235L285 243L288 235L296 232L288 229L285 221Z" fill="#2563EA"/>
<path d="M169.62 243.64C172.22 243.64 174.56 244.38 176.64 245.86C178.72 247.34 180.34 249.36 181.5 251.92C182.66 254.44 183.24 257.22 183.24 260.26C183.24 263.26 182.66 266.1 181.5 268.78C180.34 271.42 178.7 273.56 176.58 275.2C174.5 276.8 172.12 277.6 169.44 277.6C166.32 277.6 163.64 276.96 161.4 275.68C159.2 274.36 157.56 272.34 156.48 269.62C156.48 271.9 156.56 275.56 156.72 280.6C156.88 285.48 156.96 288.92 156.96 290.92H143.4C143.64 283.48 143.76 275.7 143.76 267.58C143.76 259.46 143.64 251.68 143.4 244.24H154.92L156.66 251.74C157.78 248.94 159.46 246.9 161.7 245.62C163.94 244.3 166.58 243.64 169.62 243.64ZM163.2 266.8C165 266.8 166.5 266.24 167.7 265.12C168.94 263.96 169.56 262.46 169.56 260.62C169.56 258.58 169 256.92 167.88 255.64C166.76 254.36 165.24 253.72 163.32 253.72C161.12 253.72 159.46 254.26 158.34 255.34C157.22 256.38 156.66 258.14 156.66 260.62C156.66 262.02 157.02 263.2 157.74 264.16C158.46 265.08 159.32 265.76 160.32 266.2C161.32 266.6 162.28 266.8 163.2 266.8ZM206.783 277.6C199.943 277.6 194.903 276.04 191.663 272.92C188.463 269.76 186.863 265.62 186.863 260.5C186.863 255.5 188.463 251.44 191.663 248.32C194.903 245.2 199.943 243.64 206.783 243.64C211.383 243.64 215.223 244.4 218.303 245.92C221.423 247.4 223.723 249.42 225.203 251.98C226.683 254.5 227.423 257.34 227.423 260.5C227.423 265.66 225.703 269.8 222.263 272.92C218.863 276.04 213.703 277.6 206.783 277.6ZM207.023 267.4C209.623 267.4 211.563 266.78 212.843 265.54C214.123 264.3 214.763 262.64 214.763 260.56C214.763 258.6 214.123 257 212.843 255.76C211.563 254.48 209.623 253.84 207.023 253.84C204.423 253.84 202.523 254.46 201.323 255.7C200.123 256.94 199.523 258.56 199.523 260.56C199.523 262.64 200.123 264.3 201.323 265.54C202.523 266.78 204.423 267.4 207.023 267.4ZM270.882 230.32C270.642 237.76 270.522 245.54 270.522 253.66C270.522 261.7 270.642 269.48 270.882 277H257.322L257.502 269.8C256.342 272.48 254.662 274.46 252.462 275.74C250.262 276.98 247.662 277.6 244.662 277.6C242.062 277.6 239.722 276.86 237.642 275.38C235.562 273.9 233.942 271.9 232.782 269.38C231.622 266.82 231.042 264.02 231.042 260.98C231.042 257.98 231.622 255.16 232.782 252.52C233.942 249.84 235.562 247.7 237.642 246.1C239.762 244.46 242.162 243.64 244.842 243.64C247.962 243.64 250.622 244.3 252.822 245.62C255.062 246.9 256.722 248.9 257.802 251.62C257.802 249.34 257.722 245.68 257.562 240.64C257.402 235.76 257.322 232.32 257.322 230.32H270.882ZM250.962 267.52C252.922 267.52 254.522 266.98 255.762 265.9C257.002 264.78 257.622 263.02 257.622 260.62C257.622 258.5 257.002 256.94 255.762 255.94C254.522 254.94 252.962 254.44 251.082 254.44C249.282 254.44 247.762 255.02 246.522 256.18C245.322 257.3 244.722 258.78 244.722 260.62C244.722 262.66 245.282 264.32 246.402 265.6C247.522 266.88 249.042 267.52 250.962 267.52ZM313.828 253C313.788 255.4 313.768 259.08 313.768 264.04C313.768 270 313.808 274.32 313.888 277H299.728L299.788 270.22C299.868 262.78 299.908 257.04 299.908 253C299.908 249.16 299.868 243.72 299.788 236.68L299.728 230.2H313.888C313.808 235.88 313.768 240.52 313.768 244.12C313.768 248.12 313.788 251.08 313.828 253ZM358.193 244.24L356.813 247.72C353.013 257.84 349.033 267.6 344.873 277C342.713 281.8 339.593 285.64 335.513 288.52C331.433 291.44 326.313 292.84 320.153 292.72C319.393 289.4 318.753 286.8 318.233 284.92C317.753 283.08 317.113 281.22 316.312 279.34C318.513 279.86 320.573 280.12 322.493 280.12C325.613 280.12 328.093 279.46 329.933 278.14C328.493 273.86 326.793 269.26 324.833 264.34C322.873 259.42 320.033 252.72 316.312 244.24H330.533C331.013 246.24 331.673 248.56 332.513 251.2C333.353 253.84 334.193 256.38 335.033 258.82C335.273 259.58 335.653 260.74 336.173 262.3C336.733 263.82 337.173 265.1 337.493 266.14L339.053 261.4C342.053 252.72 343.833 247 344.393 244.24H358.193Z" fill="#2563EA"/>
<path d="M278 244H292L291.533 260L292 277H278L278.467 260L278 244Z" fill="#2563EA"/>
</svg>
